<?xml version="1.0" encoding="UTF-8" standalone="no"?>
<!DOCTYPE svg PUBLIC "-//W3C//DTD SVG 1.1//EN" "http://www.w3.org/Graphics/SVG/1.1/DTD/svg11.dtd">
<svg width="100%" height="100%" viewBox="0 0 3999 924" version="1.1" xmlns="http://www.w3.org/2000/svg" xmlns:xlink="http://www.w3.org/1999/xlink" xml:space="preserve" xmlns:serif="http://www.serif.com/" style="fill-rule:evenodd;clip-rule:evenodd;stroke-linejoin:round;stroke-miterlimit:2;">
    <g id="Ebene-1" serif:id="Ebene 1" transform="matrix(16.6667,0,0,16.6667,-2954,-6577)">
        <g transform="matrix(1,0,0,1,0,15.89)">
            <path d="M198.156,394C193.027,394 189.486,394.687 187.536,396.059C185.586,397.432 184.129,400.334 183.169,404.769L179.642,421.234C179.213,423.188 179,424.797 179,426.063C179,428.384 179.801,429.954 181.405,430.773C183.007,431.591 185.866,432 189.981,432L212.825,432L214.747,422.93L196.073,422.93C194.362,422.93 193.268,422.85 192.787,422.69C191.558,422.426 190.943,421.682 190.943,420.463C190.943,419.827 191.085,418.873 191.371,417.6L193.34,408.408C193.82,405.966 194.541,404.426 195.504,403.788C196.198,403.311 197.802,403.07 200.314,403.07L218.995,403.07L221,394L198.156,394Z" style="fill:rgb(237,102,27);fill-rule:nonzero;"/>
        </g>
        <g transform="matrix(1,0,0,1,0,15.89)">
            <path d="M240.511,394C235.339,394 231.747,394.687 229.735,396.058C227.721,397.431 226.224,400.334 225.245,404.768L221.653,421.234C221.217,423.188 221,424.797 221,426.063C221,428.384 221.816,429.954 223.449,430.773C225.081,431.591 227.993,432 232.184,432L249.408,432C254.632,432 258.251,431.313 260.265,429.941C262.278,428.569 263.775,425.667 264.755,421.234L268.346,404.767C268.781,402.815 269,401.204 269,399.936C269,397.615 268.169,396.045 266.51,395.227C264.849,394.409 261.925,394 257.736,394L240.511,394ZM235.046,422.69C233.79,422.426 233.163,421.682 233.163,420.463C233.163,419.827 233.308,418.873 233.6,417.6L235.604,408.408C236.148,405.965 236.883,404.425 237.809,403.788C238.57,403.31 240.205,403.071 242.709,403.071L251.61,403.071C253.352,403.071 254.496,403.151 255.04,403.31C256.291,403.63 256.918,404.373 256.918,405.544C256.918,406.182 256.792,407.14 256.54,408.416L254.535,417.606C253.988,420.043 253.293,421.539 252.446,422.094C251.601,422.652 249.895,422.93 247.33,422.93L238.403,422.93C236.656,422.93 235.537,422.85 235.046,422.69Z" style="fill:rgb(237,102,27);fill-rule:nonzero;"/>
        </g>
        <g transform="matrix(1,0,0,1,0,1.89)">
            <path d="M308.14,394L299.133,436.687L286.113,436.687C284.408,436.687 283.289,436.605 282.757,436.442C281.533,436.17 280.921,435.406 280.921,434.154C280.921,433.501 281.063,432.521 281.348,431.214L283.312,421.777C283.846,419.268 284.566,417.687 285.472,417.032C286.219,416.542 287.847,416.296 290.355,416.296L299.56,416.296L301.559,406.982L288.2,406.982C283.08,406.982 279.533,407.688 277.56,409.097C275.586,410.506 274.119,413.486 273.16,418.04L269.64,434.945C269.212,436.951 269,438.604 269,439.903C269,442.288 269.852,443.915 271.56,444.781C273.106,445.594 275.932,446 280.04,446L308.201,446L319,394L308.14,394Z" style="fill:rgb(237,102,27);fill-rule:nonzero;"/>
        </g>
        <g transform="matrix(-0.211831,0.977306,0.977306,0.211831,327.813,440.568)">
            <path d="M1.26,-9.017L9.446,-9.017L7.286,0.95L-0.914,1.017L1.26,-9.017Z" style="fill:rgb(237,102,27);fill-rule:nonzero;"/>
        </g>
        <g transform="matrix(1,0,0,1,408.526,409.89)">
            <path d="M0,38L-10.852,38L-5.728,14.416C-5.479,13.086 -5.354,12.129 -5.354,11.543C-5.354,10.32 -5.969,9.576 -7.193,9.31C-7.727,9.151 -8.846,9.07 -10.55,9.07L-19.261,9.07C-21.712,9.07 -23.31,9.31 -24.056,9.788C-25.015,10.426 -25.734,11.966 -26.214,14.41L-31.328,38L-42.185,38L-36.678,12.273C-36.519,10.725 -37.024,9.764 -38.196,9.391C-38.677,9.178 -39.875,9.07 -41.794,9.07L-50.51,9.07C-53.014,9.07 -54.641,9.31 -55.386,9.788C-56.293,10.426 -57.011,11.966 -57.544,14.41L-62.604,38L-73.526,38L-65.376,0L-54.454,0L-55.464,4.752C-53.387,1.585 -50.643,0 -47.232,0L-35.804,0C-32.128,0 -29.518,0.291 -27.972,0.871C-26.214,1.558 -25.201,2.773 -24.935,4.515C-24.243,2.931 -22.83,1.743 -20.698,0.95C-19.153,0.316 -17.582,0 -15.983,0L-4.555,0C-0.453,0 2.411,0.409 4.035,1.227C5.66,2.045 6.474,3.616 6.474,5.937C6.474,7.204 6.261,8.815 5.834,10.767L0,38" style="fill:white;"/>
        </g>
    </g>
</svg>