<?xml version="1.0" encoding="UTF-8"?>
<!DOCTYPE svg PUBLIC "-//W3C//DTD SVG 1.1//EN" "http://www.w3.org/Graphics/SVG/1.1/DTD/svg11.dtd">
<svg xmlns="http://www.w3.org/2000/svg" version="1.1" width="1967px" height="433px" style="shape-rendering:geometricPrecision; text-rendering:geometricPrecision; image-rendering:optimizeQuality; fill-rule:evenodd; clip-rule:evenodd" xmlns:xlink="http://www.w3.org/1999/xlink">
<g><path style="opacity:0.992" fill="#e37e30" d="M 1075.5,-0.5 C 1105.83,-0.5 1136.17,-0.5 1166.5,-0.5C 1136.71,143.806 1107.04,288.139 1077.5,432.5C 989.167,432.5 900.833,432.5 812.5,432.5C 800.776,431.415 789.109,429.248 777.5,426C 756.754,417.865 747.42,402.532 749.5,380C 749.386,370.747 750.219,361.58 752,352.5C 762.842,299.466 773.842,246.466 785,193.5C 789.056,174.33 796.056,156.33 806,139.5C 815.717,126.385 828.55,117.885 844.5,114C 856.959,110.701 869.625,108.701 882.5,108C 928.832,107.5 975.165,107.333 1021.5,107.5C 1016.22,133.442 1010.56,159.275 1004.5,185C 974.5,185.333 944.5,185.667 914.5,186C 907.394,186.282 900.394,187.282 893.5,189C 889.836,190.002 886.669,191.836 884,194.5C 878.391,202.386 874.391,211.053 872,220.5C 864.154,255.728 856.821,291.061 850,326.5C 846.719,341.454 852.553,350.287 867.5,353C 911.809,354.451 956.142,354.951 1000.5,354.5C 1025.12,236.058 1050.12,117.724 1075.5,-0.5 Z"/></g>
<g><path style="opacity:0.989" fill="#e37e30" d="M 282.5,432.5 C 208.833,432.5 135.167,432.5 61.5,432.5C 45.5567,431.54 30.2234,427.706 15.5,421C 6.98081,414.454 1.64747,405.954 -0.5,395.5C -0.5,386.167 -0.5,376.833 -0.5,367.5C 11.8387,306.46 25.0054,245.46 39,184.5C 43.6973,168.439 51.0306,153.772 61,140.5C 72.9506,129.276 87.1172,122.443 103.5,120C 115.418,117.935 127.418,116.602 139.5,116C 209.833,115.333 280.167,115.333 350.5,116C 344.602,141.426 338.936,166.926 333.5,192.5C 274.499,192.333 215.499,192.5 156.5,193C 144.547,192.725 135.38,197.558 129,207.5C 124.265,217.372 120.932,227.706 119,238.5C 112.282,269.091 105.949,299.757 100,330.5C 97.4817,341.966 101.648,349.8 112.5,354C 116.773,355.03 121.106,355.697 125.5,356C 182.832,356.5 240.166,356.667 297.5,356.5C 292.5,381.833 287.5,407.167 282.5,432.5 Z"/></g>
<g><path style="opacity:0.99" fill="#e37e30" d="M 616.5,432.5 C 548.5,432.5 480.5,432.5 412.5,432.5C 401.864,431.331 391.198,429.497 380.5,427C 358.15,420.16 347.817,404.993 349.5,381.5C 349.313,372.404 350.146,363.404 352,354.5C 362.872,303.805 373.872,253.138 385,202.5C 389.251,181.009 397.585,161.342 410,143.5C 421.28,131.441 435.113,123.941 451.5,121C 465.021,118.164 478.688,116.498 492.5,116C 553.833,115.333 615.167,115.333 676.5,116C 691.054,116.469 705.387,118.469 719.5,122C 738.845,127.508 749.012,140.341 750,160.5C 750.23,173.971 748.896,187.304 746,200.5C 734.176,255.62 721.843,310.62 709,365.5C 703.802,383.742 694.636,399.575 681.5,413C 672.182,419.779 661.849,424.445 650.5,427C 639.101,429.336 627.768,431.17 616.5,432.5 Z M 510.5,192.5 C 549.168,192.333 587.835,192.5 626.5,193C 646.365,195.863 653.198,207.03 647,226.5C 641,254.5 635,282.5 629,310.5C 626.677,323.479 622.01,335.479 615,346.5C 610.573,350.463 605.406,352.963 599.5,354C 594.201,354.93 588.867,355.597 583.5,356C 548.167,356.667 512.833,356.667 477.5,356C 468.249,356.143 460.416,352.976 454,346.5C 452.13,343.078 451.297,339.411 451.5,335.5C 457.378,301.986 464.211,268.652 472,235.5C 474.234,221.773 479.734,209.606 488.5,199C 495.529,195.372 502.863,193.205 510.5,192.5 Z"/></g>
<g><path style="opacity:0.989" fill="#373f41" d="M 1966.5,153.5 C 1966.5,162.833 1966.5,172.167 1966.5,181.5C 1948.98,265.073 1931.32,348.74 1913.5,432.5C 1882.83,432.5 1852.17,432.5 1821.5,432.5C 1837.3,361.312 1852.46,289.978 1867,218.5C 1869.44,202.605 1862.61,194.105 1846.5,193C 1827.33,192.833 1808.17,192.667 1789,192.5C 1767.47,192.374 1745.97,192.874 1724.5,194C 1715.28,194.889 1708.45,199.389 1704,207.5C 1700.54,214.538 1697.88,221.872 1696,229.5C 1681.31,297.14 1666.81,364.807 1652.5,432.5C 1621.83,432.5 1591.17,432.5 1560.5,432.5C 1575.14,363.139 1589.97,293.806 1605,224.5C 1607.71,215.643 1606.71,207.31 1602,199.5C 1598.86,197.014 1595.36,195.181 1591.5,194C 1570.54,192.868 1549.54,192.368 1528.5,192.5C 1506.81,192.38 1485.14,192.88 1463.5,194C 1455.78,194.778 1449.61,198.278 1445,204.5C 1440.68,212.446 1437.35,220.779 1435,229.5C 1420.34,297.146 1405.84,364.813 1391.5,432.5C 1360.83,432.5 1330.17,432.5 1299.5,432.5C 1321.6,326.854 1344.26,221.354 1367.5,116C 1398.17,115.167 1428.84,115.333 1459.5,116.5C 1456.49,127.721 1454.32,139.055 1453,150.5C 1465.17,132.995 1481.67,121.829 1502.5,117C 1525.8,115.87 1549.14,115.37 1572.5,115.5C 1598.52,115.413 1624.52,115.913 1650.5,117C 1663.93,117.55 1676.59,120.884 1688.5,127C 1697.17,133.006 1702.67,141.173 1705,151.5C 1712.99,137.397 1724.82,127.897 1740.5,123C 1747.33,120.39 1754.33,118.39 1761.5,117C 1805.81,115.376 1850.14,115.043 1894.5,116C 1912.82,116.091 1930.49,119.425 1947.5,126C 1957.95,132.41 1964.28,141.577 1966.5,153.5 Z"/></g>
<g><path style="opacity:0.986" fill="#e37e30" d="M 1235.5,432.5 C 1206.83,432.5 1178.17,432.5 1149.5,432.5C 1154.01,410.134 1158.67,387.8 1163.5,365.5C 1192.51,365.167 1221.51,365.5 1250.5,366.5C 1245.18,388.432 1240.18,410.432 1235.5,432.5 Z"/></g>
</svg>
